<?xml version="1.0" encoding="utf-8"?>
<!-- Generator: Adobe Illustrator 17.0.0, SVG Export Plug-In . SVG Version: 6.00 Build 0)  -->
<!DOCTYPE svg PUBLIC "-//W3C//DTD SVG 1.1//EN" "http://www.w3.org/Graphics/SVG/1.1/DTD/svg11.dtd">
<svg version="1.1" id="Layer_1" xmlns="http://www.w3.org/2000/svg" xmlns:xlink="http://www.w3.org/1999/xlink" x="0px" y="0px"
	 width="1190.55px" height="841.89px" viewBox="0 0 1190.55 841.89" enable-background="new 0 0 1190.55 841.89"
	 xml:space="preserve">
<g>
	<g>
		<g>
			<path fill="#662C38" d="M351.366,388.644h487.819c8.011,0,14.504-6.495,14.504-14.504V14.504C853.69,6.493,847.195,0,839.185,0
				H351.366c-8.011,0-14.504,6.495-14.504,14.504V374.14C336.86,382.151,343.355,388.644,351.366,388.644z M386.382,359.635
				l25.592-25.592h366.601l25.592,25.592H386.382z M420.472,305.034V83.612h349.607v221.423H420.472z M824.678,339.121
				l-25.59-25.592V75.114l25.59-25.59V339.121z M804.167,29.009l-25.59,25.592H411.976l-25.594-25.592
				C386.382,29.009,804.167,29.009,804.167,29.009z M365.871,49.522l25.592,25.592V313.53l-25.592,25.592L365.871,49.522
				L365.871,49.522z"/>
			<path fill="#662C38" d="M992.386,812.878h-22.83V516.999c0-0.056-0.008-0.11-0.008-0.166
				c10.364-9.792,16.852-23.645,16.852-38.995c0-29.591-24.074-53.665-53.665-53.665s-53.665,24.074-53.665,53.665
				c0,15.35,6.487,29.203,16.853,38.995c0,0.056-0.008,0.11-0.008,0.166v43.525c-35.894,34.111-82.719,52.838-132.425,52.838
				c-49.601,0-96.332-18.651-132.198-52.625v-43.739c0-0.056-0.008-0.11-0.008-0.166c10.364-9.792,16.853-23.645,16.853-38.995
				c0-29.591-24.074-53.665-53.665-53.665s-53.665,24.074-53.665,53.665c0,15.35,6.487,29.203,16.853,38.995
				c0,0.056-0.008,0.11-0.008,0.166v44.278c-35.788,33.629-82.283,52.087-131.617,52.087c-49.231,0-95.633-18.38-131.392-51.876
				v-44.487c0-0.056-0.008-0.11-0.008-0.166c10.364-9.792,16.853-23.645,16.853-38.995c0-29.591-24.074-53.665-53.665-53.665
				s-53.665,24.074-53.665,53.665c0,15.35,6.487,29.203,16.853,38.995c0,0.056-0.008,0.11-0.008,0.166v295.88h-22.836
				c-8.011,0-14.504,6.495-14.504,14.505c0,8.011,6.493,14.504,14.504,14.504H235.5h44.633h292.018h44.633h293.631h44.633h37.337
				c8.011,0,14.504-6.495,14.504-14.504C1006.892,819.376,1000.397,812.878,992.386,812.878z M265.629,812.879h-15.624v-0.002
				V531.503h15.624V812.879z M257.817,502.495c-13.595,0-24.656-11.06-24.656-24.656c0-13.595,11.06-24.656,24.656-24.656
				c13.595,0,24.656,11.06,24.656,24.656C282.471,491.435,271.412,502.495,257.817,502.495z M557.647,812.879H294.639V599.216
				c37.832,28.016,83.447,43.157,131.392,43.157c48.037,0,93.74-15.197,131.617-43.319v213.826H557.647z M602.28,812.879h-15.624
				v-0.002V531.503h15.624V812.879z M594.468,502.495c-13.595,0-24.656-11.06-24.656-24.656c0-13.595,11.06-24.656,24.656-24.656
				c13.595,0,24.656,11.06,24.656,24.656C619.124,491.435,608.063,502.495,594.468,502.495z M895.911,812.878H631.289V598.611
				c37.99,28.401,83.912,43.762,132.198,43.762c48.382,0,94.39-15.425,132.424-43.934L895.911,812.878L895.911,812.878z
				 M940.546,812.879h-15.624v-0.002V531.503h15.624V812.879z M932.732,502.495c-13.595,0-24.656-11.06-24.656-24.656
				c0-13.595,11.06-24.656,24.656-24.656c13.597,0,24.656,11.06,24.656,24.656C957.388,491.435,946.329,502.495,932.732,502.495z"/>
		</g>
	</g>
</g>
</svg>
