<?xml version="1.0" encoding="utf-8"?>
<!-- Generator: Adobe Illustrator 17.0.0, SVG Export Plug-In . SVG Version: 6.00 Build 0)  -->
<!DOCTYPE svg PUBLIC "-//W3C//DTD SVG 1.1//EN" "http://www.w3.org/Graphics/SVG/1.1/DTD/svg11.dtd">
<svg version="1.1" id="Layer_1" xmlns="http://www.w3.org/2000/svg" xmlns:xlink="http://www.w3.org/1999/xlink" x="0px" y="0px"
	 width="1190.55px" height="841.89px" viewBox="0 0 1190.55 841.89" enable-background="new 0 0 1190.55 841.89"
	 xml:space="preserve">
<g>
	<g>
		<g>
			<path fill="#662C38" d="M483.022,519.165c0,7.745,6.286,14.031,14.031,14.031h56.127c7.745,0,14.031-6.286,14.031-14.031v-84.189
				c0-7.745-6.286-14.031-14.031-14.031h-56.125c-7.745,0-14.031,6.286-14.031,14.031v84.189H483.022z M511.086,449.009h28.064
				v56.125h-28.064V449.009z"/>
			<path fill="#662C38" d="M497.055,364.82h56.125c7.745,0,14.031-6.286,14.031-14.031V266.6c0-7.745-6.286-14.031-14.031-14.031
				h-56.125c-7.745,0-14.031,6.286-14.031,14.031v84.189C483.022,358.533,489.309,364.82,497.055,364.82z M511.086,280.631h28.064
				v56.125h-28.064V280.631z"/>
			<path fill="#662C38" d="M392.029,264.592l203.246-121.947l203.246,121.947c2.259,1.361,4.757,2.006,7.212,2.006
				c4.77,0,9.415-2.427,12.04-6.806c3.999-6.651,1.838-15.266-4.798-19.252L609.306,118.341V28.064h70.158v28.064H637.37
				c-7.745,0-14.031,6.286-14.031,14.031s6.286,14.031,14.031,14.031h56.125c7.745,0,14.031-6.286,14.031-14.031V14.031
				C707.526,6.286,701.24,0,693.495,0h-98.22c-7.745,0-14.031,6.286-14.031,14.031v104.311L377.577,240.542
				c-6.636,3.984-8.797,12.6-4.798,19.252C376.749,266.43,385.391,268.591,392.029,264.592z"/>
			<path fill="#662C38" d="M328.677,533.198c7.745,0,14.031-6.286,14.031-14.031v-84.189c0-7.745-6.286-14.031-14.031-14.031H272.55
				c-7.745,0-14.031,6.286-14.031,14.031v28.062c0,7.745,6.286,14.031,14.031,14.031c7.745,0,14.031-6.286,14.031-14.031v-14.031
				h28.064v70.158C314.644,526.911,320.931,533.198,328.677,533.198z"/>
			<path fill="#662C38" d="M426.897,715.607V308.692c0-7.745-6.286-14.031-14.031-14.031c-7.745,0-14.031,6.286-14.031,14.031
				v406.914c0,7.745,6.286,14.031,14.031,14.031S426.897,723.351,426.897,715.607z"/>
			<path fill="#662C38" d="M356.739,785.765h477.07c7.745,0,14.031-6.286,14.031-14.031c0-7.745-6.286-14.031-14.031-14.031H707.526
				V617.388h14.031c7.745,0,14.031-6.286,14.031-14.031s-6.286-14.031-14.031-14.031H468.992c-7.745,0-14.031,6.286-14.031,14.031
				s6.286,14.031,14.031,14.031h14.031v140.313H356.739c-7.745,0-14.031,6.286-14.031,14.031
				C342.708,779.477,348.994,785.765,356.739,785.765z M609.306,701.576c7.745,0,14.031-6.286,14.031-14.031
				c0-7.745-6.286-14.031-14.031-14.031v-56.125h70.158v140.313h-70.158L609.306,701.576L609.306,701.576z M511.086,617.387h70.158
				v56.125c-7.745,0-14.031,6.286-14.031,14.031c0,7.745,6.286,14.031,14.031,14.031v56.127h-70.158V617.387z"/>
			<path fill="#662C38" d="M918,603.354h-56.125c-7.745,0-14.031,6.286-14.031,14.031v84.189c0,7.745,6.286,14.031,14.031,14.031
				H918c7.745,0,14.031-6.286,14.031-14.031v-84.189C932.031,609.64,925.745,603.354,918,603.354z M903.967,687.543h-28.064v-56.125
				h28.064V687.543z"/>
			<path fill="#662C38" d="M918,434.976h-56.125c-7.745,0-14.031,6.286-14.031,14.031v84.189c0,7.745,6.286,14.031,14.031,14.031
				H918c7.745,0,14.031-6.286,14.031-14.031v-84.189C932.031,441.262,925.745,434.976,918,434.976z M903.967,519.165h-28.064V463.04
				h28.064V519.165z"/>
			<path fill="#662C38" d="M889.937,813.826H300.614c-7.745,0-14.031,6.286-14.031,14.031s6.286,14.033,14.031,14.033h589.323
				c7.745,0,14.031-6.286,14.031-14.031C903.967,820.114,897.681,813.826,889.937,813.826z"/>
			<path fill="#662C38" d="M1002.189,308.692c-7.745,0-14.031,6.286-14.031,14.031v14.031H833.811
				c-7.745,0-14.031,6.286-14.031,14.031s6.286,14.031,14.031,14.031h154.347v463.04c0,7.745,6.286,14.031,14.031,14.031
				c7.745,0,14.031-6.286,14.031-14.031V322.722C1016.22,314.979,1009.934,308.692,1002.189,308.692z"/>
			<path fill="#662C38" d="M623.339,519.165c0,7.745,6.286,14.031,14.031,14.031h56.125c7.745,0,14.031-6.286,14.031-14.031v-84.189
				c0-7.745-6.286-14.031-14.031-14.031H637.37c-7.745,0-14.031,6.286-14.031,14.031L623.339,519.165L623.339,519.165z
				 M651.4,449.009h28.064v56.125h-28.064L651.4,449.009L651.4,449.009z"/>
			<path fill="#662C38" d="M314.644,687.543c0-1.824-0.799-182.409-70.158-182.409c-69.357,0-70.156,180.585-70.156,182.409
				c0,33.886,24.148,62.216,56.125,68.741v71.575c0,7.745,6.286,14.031,14.031,14.031c7.745,0,14.031-6.286,14.031-14.031v-71.575
				C290.496,749.759,314.644,721.429,314.644,687.543z M244.488,729.637c-23.208,0-42.094-18.887-42.094-42.094
				c0-69.905,18.775-154.347,42.094-154.347s42.094,84.442,42.094,154.347C286.583,710.751,267.696,729.637,244.488,729.637z"/>
			<path fill="#662C38" d="M791.717,715.607V294.662c0-7.745-6.286-14.031-14.031-14.031c-7.745,0-14.031,6.286-14.031,14.031
				v420.945c0,7.745,6.286,14.031,14.031,14.031C785.43,729.637,791.717,723.351,791.717,715.607z"/>
			<path fill="#662C38" d="M637.37,364.82h56.125c7.745,0,14.031-6.286,14.031-14.031V266.6c0-7.745-6.286-14.031-14.031-14.031
				H637.37c-7.745,0-14.031,6.286-14.031,14.031v84.189C623.339,358.533,629.625,364.82,637.37,364.82z M651.4,280.631h28.064
				v56.125h-28.064L651.4,280.631L651.4,280.631z"/>
			<path fill="#662C38" d="M188.361,491.103c7.745,0,14.031-6.286,14.031-14.031V364.82h154.347c7.745,0,14.031-6.286,14.031-14.031
				s-6.286-14.031-14.031-14.031H202.394v-14.031c0-7.745-6.286-14.031-14.031-14.031c-7.745,0-14.033,6.283-14.033,14.029v154.347
				C174.33,484.817,180.616,491.103,188.361,491.103z"/>
		</g>
	</g>
</g>
</svg>
