<?xml version="1.0" encoding="utf-8"?>
<!-- Generator: Adobe Illustrator 17.0.0, SVG Export Plug-In . SVG Version: 6.00 Build 0)  -->
<!DOCTYPE svg PUBLIC "-//W3C//DTD SVG 1.1//EN" "http://www.w3.org/Graphics/SVG/1.1/DTD/svg11.dtd">
<svg version="1.1" id="Capa_1" xmlns="http://www.w3.org/2000/svg" xmlns:xlink="http://www.w3.org/1999/xlink" x="0px" y="0px"
	 width="1190.55px" height="841.89px" viewBox="0 0 1190.55 841.89" enable-background="new 0 0 1190.55 841.89"
	 xml:space="preserve">
<g>
	<g>
		<path fill="#662C38" d="M595.275,299.019c-5.152,0-9.102,4.122-9.102,9.102v74.193l-62.343,40.36
			c-4.294,2.748-5.496,8.415-2.748,12.709c1.717,2.748,4.637,4.122,7.729,4.122c1.717,0,3.435-0.515,4.981-1.546l61.484-39.845
			l61.484,39.845c1.546,1.03,3.263,1.546,4.981,1.546c2.92,0,6.011-1.546,7.728-4.122c2.748-4.294,1.546-9.961-2.748-12.709
			l-62.343-40.36v-74.193C604.377,303.141,600.256,299.019,595.275,299.019z"/>
		<path fill="#662C38" d="M594.932,163.856L594.932,163.856h0.172h0.172l0,0c43.28-0.515,36.925-58.221,36.925-58.221
			c-1.717-38.471-34.005-38.299-37.268-38.127c-3.091-0.172-35.379-0.515-37.268,38.127
			C558.007,105.635,551.824,163.341,594.932,163.856z"/>
		<path fill="#662C38" d="M658.82,193.224c-16.831-10.648-35.723-19.751-35.723-19.751l-14.942,47.401l-8.759-24.903
			c15.457-21.468-1.031-22.498-3.95-22.498l0,0c0,0,0,0-0.172,0l0,0l0,0l0,0l0,0c0,0,0,0-0.172,0l0,0
			c-2.92,0-19.407,1.03-3.95,22.498l-8.759,24.903l-14.942-47.401c0,0-18.892,9.102-35.723,19.751
			c-12.709,7.9-15.113,16.659-15.457,29.025v7.729v34.349h79.002h0.172l0,0h0.172h79.002v-34.349v-7.729
			C673.934,209.883,671.529,201.296,658.82,193.224z"/>
		<path fill="#662C38" d="M424.046,418.896L424.046,418.896h0.172h0.172l0,0c43.28-0.515,36.925-58.221,36.925-58.221
			c-1.717-38.471-34.005-38.299-37.268-38.127c-3.091-0.172-35.379-0.515-37.268,38.127
			C387.121,360.675,380.767,418.381,424.046,418.896z"/>
		<path fill="#662C38" d="M487.763,448.264c-16.831-10.648-35.723-19.751-35.723-19.751l-14.942,47.401l-8.759-24.903
			c15.457-21.468-1.03-22.499-3.95-22.499l0,0c0,0,0,0-0.172,0l0,0l0,0l0,0l0,0l0,0c0,0,0,0-0.172,0l0,0
			c-2.92,0-19.407,1.03-3.95,22.499l-8.759,24.903l-14.942-47.401c0,0-18.892,9.102-35.723,19.751
			c-12.709,7.9-15.113,16.659-15.457,29.025v7.728v34.349h79.002h0.172l0,0h0.172h79.002v-34.349v-7.728
			C502.877,464.924,500.472,456.336,487.763,448.264z"/>
		<path fill="#662C38" d="M765.645,418.896L765.645,418.896h0.172h0.172l0,0c43.28-0.515,36.925-58.221,36.925-58.221
			c-1.717-38.471-34.005-38.299-37.268-38.127c-3.091-0.172-35.379-0.515-37.268,38.127
			C728.72,360.675,722.537,418.381,765.645,418.896z"/>
		<path fill="#662C38" d="M829.534,448.264c-16.831-10.648-35.723-19.751-35.723-19.751l-14.942,47.401l-8.759-24.903
			c15.457-21.468-1.031-22.499-3.95-22.499l0,0c0,0,0,0-0.172,0l0,0l0,0l0,0l0,0l0,0c0,0,0,0-0.172,0l0,0
			c-2.92,0-19.407,1.03-3.95,22.499l-8.759,24.903l-14.942-47.401c0,0-18.892,9.102-35.723,19.751
			c-12.709,7.9-15.113,16.659-15.457,29.025v7.728v34.349h79.002h0.172l0,0h0.172h79.002v-34.349v-7.728
			C844.648,464.924,842.243,456.336,829.534,448.264z"/>
		<path fill="#662C38" d="M837.606,677.886l-62.343-40.36v-74.194c0-5.152-4.122-9.102-9.102-9.102
			c-5.152,0-9.102,4.122-9.102,9.102v74.194l-62.343,40.36c-4.294,2.748-5.496,8.415-2.748,12.709
			c1.717,2.748,4.637,4.122,7.729,4.122c1.717,0,3.435-0.515,4.981-1.546l61.484-39.845l61.484,39.845
			c1.546,1.031,3.263,1.546,4.981,1.546c2.92,0,6.011-1.546,7.729-4.122C843.102,686.474,841.9,680.634,837.606,677.886z"/>
		<path fill="#662C38" d="M595.103,673.936h0.172l0,0c43.28-0.515,36.925-58.221,36.925-58.221
			c-1.717-38.471-34.005-38.299-37.268-38.127c-3.091-0.172-35.379-0.515-37.268,38.127c0,0-6.354,57.706,36.925,58.221l0,0
			C594.932,673.936,594.932,673.936,595.103,673.936z"/>
		<path fill="#662C38" d="M658.649,703.304c-16.831-10.648-35.723-19.751-35.723-19.751l-14.942,47.401l-8.759-24.903
			c15.457-21.468-1.031-22.498-3.95-22.498l0,0c0,0,0,0-0.172,0l0,0l0,0l0,0l0,0l0,0c0,0,0,0-0.172,0l0,0
			c-2.92,0-19.407,1.03-3.95,22.498l-8.759,24.903l-14.942-47.401c0,0-18.892,9.102-35.723,19.751
			c-12.709,7.9-15.113,16.659-15.457,29.025v7.729v34.349h79.002h0.172l0,0h0.172h79.002v-34.349v-7.729
			C673.762,719.964,671.358,711.376,658.649,703.304z"/>
		<path fill="#662C38" d="M936.531,673.936L936.531,673.936h0.172h0.172l0,0c43.28-0.515,36.925-58.221,36.925-58.221
			c-1.717-38.471-34.005-38.299-37.269-38.127c-3.091-0.172-35.379-0.515-37.268,38.127
			C899.606,615.715,893.423,673.421,936.531,673.936z"/>
		<path fill="#662C38" d="M1015.877,732.329c-0.344-12.366-2.748-21.125-15.457-29.025c-16.831-10.648-35.723-19.751-35.723-19.751
			l-14.942,47.401l-8.759-24.903c15.457-21.468-1.03-22.498-3.95-22.498l0,0c0,0,0,0-0.172,0l0,0l0,0l0,0l0,0c0,0,0,0-0.172,0l0,0
			c-2.92,0-19.407,1.03-3.95,22.498l-8.759,24.903l-14.942-47.401c0,0-18.892,9.102-35.723,19.751
			c-12.709,7.9-15.114,16.659-15.457,29.025v7.729v34.349h79.002h0.172l0,0h0.172h79.002v-34.349L1015.877,732.329z"/>
		<path fill="#662C38" d="M495.835,677.886l-62.343-40.36v-74.194c0-5.152-4.122-9.102-9.102-9.102
			c-5.152,0-9.102,4.122-9.102,9.102v74.194l-62.343,40.36c-4.294,2.748-5.496,8.415-2.748,12.709
			c1.717,2.748,4.637,4.122,7.728,4.122c1.717,0,3.435-0.515,4.981-1.546l61.484-39.845l61.484,39.845
			c1.546,1.031,3.263,1.546,4.981,1.546c2.92,0,6.011-1.546,7.728-4.122C501.331,686.474,500.129,680.634,495.835,677.886z"/>
		<path fill="#662C38" d="M253.161,673.936L253.161,673.936h0.172h0.172l0,0c43.28-0.515,36.925-58.221,36.925-58.221
			c-1.717-38.471-34.005-38.299-37.268-38.127c-3.091-0.172-35.379-0.515-37.268,38.127
			C216.236,615.715,209.881,673.421,253.161,673.936z"/>
		<path fill="#662C38" d="M316.878,703.304c-16.831-10.648-35.723-19.751-35.723-19.751l-14.942,47.401l-8.759-24.903
			c15.457-21.468-1.03-22.498-3.95-22.498l0,0c0,0,0,0-0.172,0l0,0l0,0l0,0l0,0l0,0c0,0,0,0-0.172,0l0,0
			c-2.92,0-19.407,1.03-3.95,22.498l-8.759,24.903l-14.942-47.401c0,0-18.892,9.102-35.723,19.751
			c-12.709,7.9-15.113,16.659-15.457,29.025v7.729v34.349h79.002l0,0l0,0h0.172h79.002v-34.349v-7.729
			C331.991,719.964,329.587,711.376,316.878,703.304z"/>
	</g>
</g>
</svg>
