<?xml version="1.0" encoding="utf-8"?>
<!-- Generator: Adobe Illustrator 17.0.0, SVG Export Plug-In . SVG Version: 6.00 Build 0)  -->
<!DOCTYPE svg PUBLIC "-//W3C//DTD SVG 1.1//EN" "http://www.w3.org/Graphics/SVG/1.1/DTD/svg11.dtd">
<svg version="1.1" id="Capa_1" xmlns="http://www.w3.org/2000/svg" xmlns:xlink="http://www.w3.org/1999/xlink" x="0px" y="0px"
	 width="1190.55px" height="841.89px" viewBox="0 0 1190.55 841.89" enable-background="new 0 0 1190.55 841.89"
	 xml:space="preserve">
<path fill="#662C38" d="M1015.323,748.945c2.353-15.692,0.029-31.737-6.897-46.399c-9.236-19.53-25.516-34.31-45.87-41.59
	c-0.103-0.044-0.206-0.044-0.309-0.074l-209.23-74.93c50.855-52.723,83.136-131.373,83.136-223.833
	c0-170.037-44.12-235.304-44.12-235.304c0,139.712-117.652,235.304-117.652,235.304c0-110.299-44.12-205.891-44.12-205.891
	c0,86.401-58.826,132.359-58.826,132.359c-78.592-78.592,0-264.718,0-264.718c-111.917,14.765-212.142,91.916-212.142,220.598
	c0,91.004,25.413,151.536,65.076,191.185c0,0-35.193-20.413-70.297-33.884c9.295,73.577,40.016,138.241,83.901,184.023
	l-209.392,74.974c-0.191,0.074-0.397,0.103-0.588,0.177c-20.339,7.28-36.634,22.06-45.87,41.59
	c-6.927,14.677-9.25,30.707-6.897,46.399c0.779,5.221,2.059,10.398,3.883,15.471c2.353,6.559,5.736,12.486,9.559,18.104
	c8.015,11.78,18.795,21.457,32.016,27.722c10.986,5.191,22.722,7.794,34.516,7.794c0.015,0,0.044,0,0.059,0c0.029,0,0.059,0,0.088,0
	c9.162,0,18.324-1.574,27.178-4.75l312.749-112.005l312.749,112.005c0.882,0.324,1.809,0.397,2.691,0.677
	c3.883,1.25,7.78,2.309,11.736,2.956c1.824,0.294,3.647,0.309,5.471,0.471c2.471,0.235,4.941,0.647,7.427,0.647
	c0.897,0,1.779-0.118,2.662-0.147c0.824-0.029,1.632-0.088,2.456-0.132c4.662-0.309,9.295-0.956,13.854-2.074
	c0.397-0.103,0.779-0.235,1.177-0.338c4.883-1.265,9.692-2.897,14.354-5.103c13.265-6.265,24.075-15.986,32.09-27.825
	c3.794-5.589,7.162-11.486,9.486-18.001C1013.264,759.342,1014.558,754.166,1015.323,748.945z M917.951,785.564L917.951,785.564
	c-12.942-4.633-23.31-14.045-29.192-26.472c-5.883-12.427-6.559-26.398-1.912-39.355c4.633-12.942,14.03-23.295,26.457-29.178
	c6.986-3.309,14.457-4.956,21.957-4.956c5.706,0,11.442,0.985,16.986,2.927l0.397,0.147c12.868,4.603,23.222,14.03,29.104,26.501
	c4.427,9.353,5.927,19.545,4.456,29.487c-0.5,3.309-1.309,6.589-2.456,9.795c-1.368,3.809-3.265,7.324-5.412,10.633
	c-5.147,7.897-12.295,14.354-21.089,18.501c-6.221,2.956-12.809,4.603-19.457,4.941
	C931.128,788.858,924.407,787.873,917.951,785.564z M395.06,453.108c8.794,4.647,14.412,7.897,14.559,7.971
	c4.618,2.677,9.706,3.971,14.721,3.971c8.883,0,17.604-4.015,23.339-11.486c9-11.706,7.927-28.281-2.515-38.722
	c-37.458-37.458-56.458-94.784-56.458-170.39c0-51.899,19.016-97.445,54.988-131.726c22.369-21.324,50.84-37.899,82.783-48.532
	c-19.354,66.768-39.516,181.508,24.163,245.187c5.706,5.706,13.236,8.618,20.81,8.618c6.368,0,12.751-2.059,18.104-6.236
	c1.632-1.265,24.075-19.177,43.134-52.694c6.897,30.251,12.28,65.826,12.28,103.049c0,11.353,6.53,21.677,16.78,26.56
	c4.03,1.912,8.339,2.853,12.633,2.853c6.633,0,13.206-2.235,18.56-6.589c3.78-3.074,68.68-56.708,104.769-143.198
	c5.235,31.472,9.03,71.253,9.03,120.358c0,92.298-34.399,170.552-88.857,217.554c-2.118,1.75-4.177,3.633-6.324,5.294
	c-0.103,0.088-0.221,0.162-0.338,0.25c-6.78,5.191-13.795,9.75-20.883,14.001c10.721-17.53,16.942-38.046,16.942-60.253
	c0-62.944-20.677-88.901-23.03-91.651c-4-4.691-10.5-6.397-16.265-4.235c-5.78,2.132-9.603,7.647-9.603,13.795
	c0,22.369-13.677,44.267-26.222,59.65c-5.868-27.84-16.81-49.664-17.427-50.914c-3.074-6.059-9.883-9.221-16.545-7.662
	c-6.618,1.574-11.295,7.5-11.295,14.309c0,9.956-13.956,13.795-23.148,15.236c-5-14.354,0.221-43.693,6.294-61.856
	c1.588-4.736,0.662-9.971-2.456-13.868c-3.132-3.912-8.044-5.941-13.001-5.441c-56.37,5.868-87.416,38.399-87.416,91.578
	c0,15.295,2.353,29.045,7.03,41.193c-1.544,0.603-3.015,1.485-4.294,2.603c-3.824,3.338-5.647,8.397-4.853,13.412
	c1.132,7.103,2.912,13.971,5.206,20.56C436.9,545.127,410.34,502.772,395.06,453.108z M502.8,577.187
	c1.059,0.471,1.677,0.735,1.706,0.75c6.765,3.088,14.78,0.632,18.663-5.706c3.883-6.353,2.412-14.604-3.427-19.207
	c-15.589-12.309-23.163-30.354-23.163-55.149c0-30.251,12.883-49.355,39.237-57.914c-4.677,22.736-7.28,55.032,9.515,73.077
	c2.838,3.044,6.677,4.427,10.971,4.677c11.721-0.162,29.34-3.397,42.458-12.545c3.985,12.677,7.618,28.472,7.618,44.002
	c0,5.721,3.309,10.912,8.486,13.324c5.191,2.412,11.295,1.618,15.662-2.059c1.618-1.353,28.251-24.001,44.62-55.973
	c1.603,9.486,2.706,20.898,2.706,34.457c0,48.723-37.649,85.68-88.21,87.695c-10.545-0.25-20.942-1.471-31.134-3.691
	C534.272,615.821,514.11,599.306,502.8,577.187z M255.289,685.604c7.5,0,14.986,1.662,21.957,4.956
	c12.442,5.868,21.824,16.236,26.472,29.178c4.633,12.942,3.956,26.928-1.927,39.355c-5.868,12.442-16.236,21.825-29.178,26.472
	c-6.471,2.309-13.192,3.294-19.854,2.985c-6.647-0.338-13.251-1.985-19.471-4.941c-8.765-4.147-15.898-10.574-21.03-18.442
	c-2.177-3.338-4.088-6.853-5.456-10.706c-1.147-3.221-1.971-6.5-2.456-9.795c-1.471-9.942,0.044-20.133,4.456-29.487
	c5.897-12.471,16.236-21.883,29.104-26.501l0.382-0.132C243.833,686.604,249.569,685.604,255.289,685.604z M330.866,764.725
	c2.427-6.633,4.088-13.427,4.721-20.339c0.176,0,0.353,0.088,0.529,0.088c1.529,0,3.103-0.25,4.647-0.765l88.239-29.413
	c7.706-2.574,11.868-10.898,9.295-18.604c-2.574-7.692-10.883-11.883-18.604-9.295l-86.916,28.972
	c-0.515-1.838-0.75-3.721-1.397-5.544c-1.309-3.662-2.941-7.103-4.691-10.442l43.487-14.501c7.706-2.574,11.868-10.898,9.295-18.604
	c-2.559-7.706-10.868-11.898-18.604-9.294l-44.12,14.706c-3.074,1.029-5.383,3.118-7.118,5.589
	c-4.015-3.647-8.368-6.883-13.001-9.633l162.331-58.135c30.751,23.266,64.782,38.09,100.328,43.899
	c8.412,1.779,17.104,2.824,26.045,2.824c1.294,0,2.544-0.147,3.838-0.176c1.441,0.029,2.853,0.176,4.294,0.176
	c7.383,0,14.692-0.515,21.972-1.265c2.382-0.25,4.736-0.588,7.089-0.912c4.956-0.691,9.868-1.559,14.751-2.588
	c2.544-0.529,5.103-1.015,7.618-1.647c6.5-1.632,12.942-3.5,19.295-5.736c2.368-0.838,4.662-1.882,7-2.794
	c4.486-1.75,8.942-3.603,13.339-5.662c2.368-1.118,4.706-2.294,7.03-3.485c5.544-2.824,11-5.897,16.383-9.206
	c0.515-0.324,1.044-0.603,1.559-0.927c6.618-4.147,13.162-8.515,19.516-13.398l165.287,59.194
	c-5.662,3.338-10.868,7.236-15.486,11.765c-1.632-3.574-4.618-6.53-8.647-7.868L826.05,657c-7.721-2.588-16.03,1.588-18.604,9.295
	c-2.574,7.706,1.588,16.03,9.294,18.604l44.12,14.707c0.941,0.324,1.897,0.353,2.853,0.471c-1.647,3.191-3.382,6.324-4.603,9.765
	c-0.824,2.324-1.162,4.706-1.779,7.059c-0.647-0.324-1.162-0.838-1.868-1.074l-88.239-29.413
	c-7.736-2.574-16.045,1.603-18.604,9.294c-2.574,7.706,1.588,16.03,9.295,18.604l88.239,29.413c1.544,0.515,3.118,0.765,4.647,0.765
	c1.382,0,2.721-0.265,4.03-0.632c0.603,7.103,2.309,14.074,4.809,20.883l-264.409-94.695L330.866,764.725z"/>
</svg>
